<?xml version="1.0" standalone="no"?>
<!DOCTYPE svg PUBLIC "-//W3C//DTD SVG 20010904//EN"
 "http://www.w3.org/TR/2001/REC-SVG-20010904/DTD/svg10.dtd">
<svg version="1.0" xmlns="http://www.w3.org/2000/svg"
 width="329.000000pt" height="241.000000pt" viewBox="0 0 329.000000 241.000000"
 preserveAspectRatio="xMidYMid meet">

<g transform="translate(0.000000,241.000000) scale(0.100000,-0.100000)"
fill="#000000" stroke="none">
<path d="M1192 2202 c-11 -9 -23 -30 -26 -46 -6 -24 -4 -28 10 -22 16 6 16 5
0 -13 -15 -16 -19 -36 -18 -88 0 -80 29 -166 77 -234 l32 -45 -96 -29 c-53
-16 -123 -40 -156 -54 -57 -24 -70 -26 -250 -26 -197 -1 -251 -9 -330 -48 -93
-47 -139 -101 -176 -209 -46 -138 -11 -270 82 -308 24 -11 29 -18 29 -49 1
-94 41 -188 114 -269 237 -259 824 -361 1371 -238 43 10 108 13 230 9 155 -4
173 -3 200 15 17 10 37 32 45 48 8 16 16 31 17 33 1 2 29 -12 62 -33 70 -43
135 -58 194 -44 95 21 151 88 146 175 l-3 46 54 4 c77 6 138 44 169 107 22 44
24 54 14 100 -6 28 -14 58 -18 67 -4 12 1 18 18 23 34 8 104 87 115 130 20 72
-28 148 -113 176 -43 14 -148 18 -187 7 -21 -5 -28 -4 -28 6 0 19 -73 122
-113 159 -55 52 -167 120 -256 155 -46 18 -89 33 -95 33 -18 -1 26 -30 45 -30
12 0 16 -6 12 -19 -4 -17 -8 -16 -38 12 -34 31 -34 31 -18 66 33 77 73 213 73
251 0 35 -3 40 -23 40 -13 0 -49 -9 -80 -19 -50 -17 -75 -19 -244 -14 -214 6
-281 -4 -365 -58 l-48 -31 -58 53 c-32 30 -102 78 -156 108 -54 30 -113 66
-130 81 -43 37 -62 42 -84 22z m163 -152 c145 -77 210 -140 228 -220 5 -21 3
-25 -18 -25 -17 0 -21 3 -13 12 12 14 -1 40 -34 68 l-23 20 18 -21 c9 -11 17
-26 17 -32 0 -7 5 -12 11 -12 5 0 7 -5 3 -11 -4 -7 -18 0 -38 18 -66 61 -127
85 -82 33 21 -26 26 -60 9 -60 -3 0 -3 7 0 15 8 18 -8 28 -53 32 -45 4 -87 48
-95 100 -3 21 -10 52 -15 68 -8 24 -8 19 -4 -24 3 -30 12 -70 20 -89 26 -63
-4 -55 -37 10 -23 45 -35 131 -25 173 l7 28 22 -20 c12 -11 58 -39 102 -63z
m-157 45 c-6 -14 -15 -25 -20 -25 -5 0 -1 11 8 25 9 14 18 25 20 25 2 0 -2
-11 -8 -25z m1071 -141 c2 -2 -8 -33 -23 -69 -45 -105 -112 -169 -201 -191
-27 -6 -24 -2 25 37 30 24 66 55 79 69 24 26 61 92 61 110 0 23 -18 8 -35 -30
-10 -22 -26 -47 -36 -56 -11 -10 -19 -22 -19 -28 -1 -18 -74 -65 -117 -74 -24
-6 -48 -5 -63 1 -14 6 -36 12 -50 13 -40 5 -59 10 -66 16 -3 4 -12 4 -20 1 -8
-3 -14 1 -14 8 0 7 3 10 6 6 3 -3 14 2 25 11 11 9 41 24 67 34 l47 16 -38 7
c-43 8 -166 -18 -204 -42 -13 -9 -23 -13 -23 -9 0 12 43 48 73 61 45 20 22 18
-30 -1 -23 -9 -45 -24 -48 -34 -4 -11 -15 -17 -29 -16 l-24 1 18 35 c34 65 91
105 181 125 49 11 110 13 259 8 107 -3 197 -7 199 -9z m-921 -106 c-6 -18 -28
-21 -28 -4 0 9 7 16 16 16 9 0 14 -5 12 -12z m75 -13 c-6 -17 -29 -20 -38 -6
-6 11 25 32 37 25 4 -3 5 -11 1 -19z m448 -130 c-1 -15 -24 -12 -29 3 -3 9 2
13 12 10 10 -1 17 -7 17 -13z m67 -7 c-6 -18 -28 -21 -28 -4 0 9 7 16 16 16 9
0 14 -5 12 -12z m392 -38 c0 -5 -2 -10 -4 -10 -3 0 -8 5 -11 10 -3 6 -1 10 4
10 6 0 11 -4 11 -10z m-830 -10 c11 0 35 -14 55 -31 57 -50 45 -117 -28 -157
-49 -26 -239 -22 -472 12 -157 23 -214 28 -325 24 -121 -4 -141 -7 -180 -29
-47 -26 -75 -59 -84 -101 -4 -20 1 -34 20 -58 25 -29 31 -31 82 -29 67 3 74
-7 38 -61 -48 -73 -134 -111 -205 -90 -41 11 -102 67 -95 85 3 7 1 16 -4 19
-11 7 0 77 23 147 20 60 76 124 134 153 100 51 203 56 531 29 290 -24 426 -4
439 63 4 23 21 36 39 29 8 -3 22 -5 32 -5z m804 -12 c7 -12 7 -21 0 -28 -8 -8
-10 -4 -10 12 1 17 -4 23 -21 22 -12 0 -20 3 -17 8 9 14 35 5 48 -14z m-41
-33 c10 -14 14 -25 10 -25 -9 0 -43 36 -43 45 0 12 17 2 33 -20z m140 -13 c26
-23 21 -39 -28 -94 -25 -28 -45 -54 -45 -59 0 -16 -26 -10 -45 11 -17 18 -17
40 -3 100 1 8 18 27 36 42 34 28 52 28 85 0z m-222 8 c40 -22 20 -93 -71 -244
-67 -111 -70 -118 -70 -180 0 -81 17 -101 54 -61 14 15 28 41 31 58 12 53 46
150 68 190 18 32 25 37 58 37 21 0 47 -8 59 -18 29 -23 24 -47 -24 -121 -54
-83 -70 -191 -28 -191 28 0 51 32 73 102 38 118 130 198 231 198 85 0 117 -50
93 -144 -24 -93 -111 -144 -173 -100 -32 22 -37 12 -16 -33 17 -34 23 -38 63
-41 62 -5 86 3 131 44 37 34 40 40 40 89 0 47 4 58 33 88 66 71 219 76 284 11
28 -28 26 -58 -9 -107 -26 -36 -60 -50 -93 -37 -27 10 -35 40 -10 40 8 0 22
11 31 25 13 20 14 28 4 40 -7 8 -21 15 -32 15 -25 0 -78 -53 -78 -77 0 -11 20
-59 45 -107 56 -110 58 -145 12 -191 -52 -52 -144 -59 -202 -14 -34 27 -34 77
0 109 26 24 37 16 32 -24 -5 -45 77 -47 89 -2 6 27 -17 85 -46 111 -18 16 -20
15 -55 -24 -106 -117 -301 -137 -355 -36 -16 30 -22 31 -46 4 -49 -55 -129
-62 -160 -14 l-15 24 -36 -25 c-51 -34 -89 -31 -127 10 l-32 33 -34 -28 c-64
-54 -162 -33 -195 41 l-16 37 -46 -12 c-30 -8 -53 -22 -70 -43 -13 -18 -38
-39 -53 -47 -65 -33 -153 -7 -185 55 -13 25 -19 29 -35 20 -10 -5 -28 -10 -38
-10 -12 0 -28 -14 -41 -35 -28 -49 -76 -75 -134 -75 -42 0 -54 5 -82 33 -30
30 -55 88 -55 128 0 15 -6 15 -62 -2 -34 -11 -64 -22 -67 -24 -12 -12 -51
-238 -51 -295 0 -75 -10 -90 -57 -90 -57 0 -73 29 -73 134 0 50 5 120 10 155
6 35 9 66 6 69 -8 7 -109 -28 -128 -45 -10 -9 -18 -24 -18 -34 0 -41 -42 -33
-61 12 -10 25 -9 36 4 63 18 39 60 61 157 84 l68 16 17 113 c10 62 15 122 12
134 -7 26 29 49 81 52 67 2 75 -12 68 -123 -3 -52 -9 -112 -12 -133 -6 -38 -6
-38 22 -32 78 18 93 26 104 59 19 58 70 126 111 146 121 62 205 -9 197 -164
-3 -66 4 -80 30 -54 7 7 12 26 12 42 0 39 40 122 75 160 33 34 99 65 138 66
82 0 124 -73 113 -197 l-7 -76 23 15 c15 10 25 30 30 58 24 138 167 249 258
200 16 -9 22 -4 39 35 56 126 131 187 192 155z m62 -55 c-3 -9 -8 -14 -10 -11
-3 3 -2 9 2 15 9 16 15 13 8 -4z m-1967 -343 c-4 -3 -11 0 -16 8 -15 24 -11
33 6 15 9 -9 13 -19 10 -23z m1689 -302 c187 -13 457 -47 549 -70 89 -22 130
-43 159 -82 19 -26 19 -27 1 -65 -13 -25 -32 -44 -58 -57 -34 -16 -45 -17 -89
-7 -28 6 -64 24 -83 41 -46 40 -167 76 -349 105 -265 41 -373 50 -615 49 -263
0 -396 -18 -561 -74 -105 -36 -109 -36 -109 -5 0 19 9 28 47 45 115 51 357
104 541 119 136 11 413 12 567 1z m-995 -230 c0 -11 5 -20 11 -20 6 0 13 9 16
20 3 11 12 20 20 20 12 0 13 -9 8 -42 -4 -24 -9 -46 -12 -50 -9 -15 -23 -8
-23 12 0 12 -7 20 -16 20 -9 0 -18 -9 -21 -20 -3 -11 -12 -20 -20 -20 -11 0
-12 9 -8 38 10 55 13 62 30 62 8 0 15 -9 15 -20z m175 10 c6 -10 -7 -14 -32
-11 -6 1 -14 -3 -18 -9 -3 -5 3 -10 14 -10 12 0 21 -4 21 -10 0 -5 -12 -10
-26 -10 -14 0 -23 -4 -19 -10 3 -5 15 -10 26 -10 10 0 19 -4 19 -10 0 -5 -18
-10 -41 -10 l-41 0 7 43 c4 23 9 45 12 50 6 11 71 9 78 -3z m103 -37 c6 -26 9
-50 6 -52 -2 -2 -15 2 -29 9 -16 9 -28 10 -37 3 -7 -5 -21 -13 -31 -16 -19 -7
-19 -7 28 70 29 48 51 43 63 -14z m77 8 c-6 -36 -5 -39 14 -34 15 4 21 1 21
-11 0 -12 -10 -16 -41 -16 -34 0 -40 3 -35 18 2 9 7 32 11 50 4 19 13 32 22
32 12 0 13 -8 8 -39z m145 29 c0 -5 -7 -13 -15 -18 -9 -4 -19 -21 -23 -37 -12
-45 -35 -46 -30 -1 3 25 0 36 -9 36 -7 0 -13 7 -13 15 0 11 12 15 45 15 25 0
45 -4 45 -10z m55 -10 c-5 -15 -2 -20 10 -20 9 0 19 9 22 20 3 11 12 20 20 20
11 0 13 -8 8 -32 -12 -58 -16 -68 -31 -68 -11 0 -13 6 -9 20 5 15 2 20 -10 20
-9 0 -19 -9 -22 -20 -3 -11 -12 -20 -20 -20 -12 0 -13 9 -8 43 9 51 12 57 31
57 11 0 13 -6 9 -20z m125 3 c10 -17 10 -17 20 0 10 16 40 24 40 11 0 -3 -11
-19 -25 -36 -14 -16 -25 -36 -25 -44 0 -8 -7 -14 -16 -14 -11 0 -15 6 -12 18
3 11 -1 30 -8 43 -7 13 -13 27 -14 32 0 14 29 7 40 -10z m218 5 c-3 -7 -15
-15 -29 -19 l-24 -7 23 -1 c28 -1 25 -24 -4 -30 -10 -2 -23 -9 -27 -17 -23
-40 -37 9 -17 60 8 21 16 26 46 26 24 0 34 -4 32 -12z m122 -7 c14 -26 -3 -67
-30 -76 -56 -18 -96 25 -66 70 21 32 80 35 96 6z m134 -4 c27 -42 -50 -100
-90 -66 -19 15 -18 54 2 74 21 20 73 16 88 -8z m124 11 c33 -33 -7 -88 -64
-88 l-36 0 7 43 c4 23 9 45 12 50 7 12 68 8 81 -5z m-1018 -127 c0 -9 -7 -6
-20 9 -11 13 -20 25 -20 27 0 2 9 -2 20 -9 11 -7 20 -19 20 -27z m-20 -32 c0
-6 -4 -7 -10 -4 -5 3 -10 11 -10 16 0 6 5 7 10 4 6 -3 10 -11 10 -16z"/>
<path d="M2045 1910 c-3 -5 -1 -10 4 -10 6 0 11 5 11 10 0 6 -2 10 -4 10 -3 0
-8 -4 -11 -10z"/>
<path d="M1910 1353 c-72 -26 -131 -200 -84 -247 19 -19 18 -19 53 -1 34 17
38 26 47 105 6 53 4 63 -12 75 -18 13 -18 14 4 8 17 -4 22 -1 24 16 0 11 1 26
2 33 1 14 -13 18 -34 11z"/>
<path d="M1504 1325 c-76 -76 -90 -245 -21 -245 30 0 64 24 49 34 -30 18 -4
136 40 183 17 19 19 25 8 38 -18 22 -48 18 -76 -10z"/>
<path d="M1161 1318 c-45 -16 -54 -29 -36 -48 22 -24 10 -65 -27 -92 -27 -19
-30 -25 -25 -60 8 -63 40 -85 80 -55 15 10 16 17 6 45 -14 41 2 113 36 158 23
30 23 33 7 47 -12 11 -23 12 -41 5z"/>
<path d="M2547 1301 c-29 -19 -77 -82 -77 -100 0 -18 51 -12 85 9 35 22 61 70
51 95 -7 20 -25 19 -59 -4z"/>
<path d="M1205 640 c-3 -5 -1 -10 4 -10 6 0 11 5 11 10 0 6 -2 10 -4 10 -3 0
-8 -4 -11 -10z"/>
<path d="M1933 663 c-22 -8 -15 -43 7 -43 13 0 20 7 20 19 0 22 -9 30 -27 24z"/>
<path d="M2062 658 c-18 -18 -14 -38 7 -38 23 0 34 25 17 39 -9 7 -16 7 -24
-1z"/>
<path d="M2187 639 c-4 -16 -1 -20 16 -17 12 2 23 11 25 21 5 25 -34 22 -41
-4z"/>
</g>
</svg>
